<svg xmlns="http://www.w3.org/2000/svg" viewBox="0 0 512 512">
  <rect width="512" height="512" fill="#6366f1" rx="100"/>
  <path d="M256 128c-70.7 0-128 57.3-128 128s57.3 128 128 128 128-57.3 128-128-57.3-128-128-128zm0 224c-53 0-96-43-96-96s43-96 96-96 96 43 96 96-43 96-96 96z" fill="#ffffff"/>
  <circle cx="256" cy="256" r="48" fill="#ffffff"/>
  <path d="M256 64c-106 0-192 86-192 192s86 192 192 192 192-86 192-192-86-192-192-192zm0 352c-88.4 0-160-71.6-160-160S167.6 96 256 96s160 71.6 160 160-71.6 160-160 160z" fill="#ffffff" opacity="0.3"/>
</svg>
