<svg xmlns="http://www.w3.org/2000/svg" viewBox="0 0 120 120" fill="none">
  <defs>
    <linearGradient id="grad" x1="0" y1="0" x2="120" y2="120" gradientUnits="userSpaceOnUse">
      <stop stop-color="#06d6a0"/>
      <stop offset="1" stop-color="#8b5cf6"/>
    </linearGradient>
    <linearGradient id="starGrad" x1="30" y1="20" x2="90" y2="100" gradientUnits="userSpaceOnUse">
      <stop stop-color="#06d6a0"/>
      <stop offset="0.5" stop-color="#8b5cf6"/>
      <stop offset="1" stop-color="#f59e0b"/>
    </linearGradient>
  </defs>
  <circle cx="60" cy="60" r="56" stroke="url(#grad)" stroke-width="3" fill="#0a0e1a"/>
  <circle cx="60" cy="60" r="48" stroke="url(#grad)" stroke-width="1" opacity="0.2" fill="none"/>
  <path d="M60 18L70 42L96 46L78 64L82 90L60 78L38 90L42 64L24 46L50 42L60 18Z" fill="url(#starGrad)" opacity="0.9"/>
  <path d="M60 28L67 46L86 49L72 62L75 82L60 73L45 82L48 62L34 49L53 46L60 28Z" fill="#0a0e1a" opacity="0.3"/>
  <circle cx="35" cy="30" r="1.5" fill="#06d6a0" opacity="0.6"/>
  <circle cx="95" cy="35" r="1" fill="#8b5cf6" opacity="0.5"/>
  <circle cx="25" cy="75" r="1.2" fill="#f59e0b" opacity="0.4"/>
  <circle cx="90" cy="85" r="1" fill="#06d6a0" opacity="0.5"/>
  <circle cx="80" cy="20" r="0.8" fill="#f59e0b" opacity="0.3"/>
  <circle cx="20" cy="50" r="0.8" fill="#8b5cf6" opacity="0.4"/>
</svg>
